<svg width="100" height="114" viewBox="0 0 100 114" fill="none" xmlns="http://www.w3.org/2000/svg">
<path d="M36.5578 15.2415H29.9109V19.0519H36.5578V15.2415Z" fill="black"/>
<path d="M36.5578 22.8622H29.9109V26.6726H36.5578V22.8622Z" fill="black"/>
<path d="M36.5578 30.483H29.9109V34.2934H36.5578V30.483Z" fill="black"/>
<path d="M59.8218 17.1467H56.4984C56.4974 18.1569 56.1469 19.1254 55.5238 19.8397C54.9008 20.5541 54.0561 20.9559 53.175 20.9571V24.7675C54.9372 24.7652 56.6267 23.9616 57.8728 22.5329C59.1189 21.1042 59.8199 19.1672 59.8218 17.1467V17.1467Z" fill="black"/>
<path d="M68.1306 26.6727V22.8623C67.2494 22.8611 66.4047 22.4592 65.7817 21.7449C65.1587 21.0306 64.8082 20.0621 64.8071 19.0519H61.4837C61.4857 21.0723 62.1866 23.0094 63.4327 24.4381C64.6788 25.8668 66.3683 26.6704 68.1306 26.6727V26.6727Z" fill="black"/>
<path d="M85.5765 109.604C82.7712 110.189 79.9098 110.335 77.0702 110.04L48.1772 107.028C47.7128 106.98 47.2825 106.728 46.9759 106.325C46.6693 105.922 46.51 105.399 46.531 104.865C46.552 104.331 46.7518 103.827 47.0888 103.457C47.4258 103.087 47.8741 102.881 48.3405 102.881H70.6228C71.7247 102.879 72.7809 102.375 73.5598 101.482C74.3386 100.588 74.7764 99.3764 74.7771 98.113V98.0685C74.7752 97.0674 74.4919 96.0936 73.9693 95.2917L70.1646 89.478C69.9234 89.1081 69.7927 88.6588 69.7919 88.197V87.8702C69.7919 87.4477 69.9012 87.0347 70.1059 86.6834C70.3106 86.3321 70.6016 86.0582 70.9421 85.8965C71.2826 85.7348 71.6572 85.6925 72.0186 85.775C72.3801 85.8574 72.7121 86.0609 72.9727 86.3597L80.2489 94.7018C80.4032 94.8787 80.5864 95.019 80.788 95.1148C80.9896 95.2105 81.2057 95.2598 81.4239 95.2598H99.7028V91.4494H82.1121L75.3229 83.665C75.1521 83.4696 74.9697 83.2878 74.7771 83.1211V40.0091C74.7771 39.5038 74.602 39.0192 74.2904 38.6619C73.9787 38.3046 73.5561 38.1039 73.1154 38.1039H71.4536V32.3883H73.9462C75.4887 32.3883 76.968 31.6858 78.0587 30.4353C79.1495 29.1847 79.7622 27.4887 79.7622 25.7201C79.7622 23.9516 79.1495 22.2555 78.0587 21.005C76.968 19.7545 75.4887 19.052 73.9462 19.052H73.7744C74.6064 17.909 75.0342 16.4499 74.9733 14.9628C74.9125 13.4758 74.3674 12.069 73.4458 11.0204C72.5242 9.9717 71.2931 9.35747 69.9957 9.29901C68.6983 9.24055 67.4289 9.7421 66.4384 10.7046C66.2812 8.81746 65.5161 7.06528 64.2926 5.79014C63.0692 4.515 61.4751 3.80845 59.8217 3.80845C58.1682 3.80845 56.5741 4.515 55.3507 5.79014C54.1272 7.06528 53.3621 8.81746 53.2049 10.7046C52.2144 9.7421 50.945 9.24055 49.6476 9.29901C48.3502 9.35747 47.1191 9.9717 46.1975 11.0204C45.2759 12.069 44.7308 13.4758 44.67 14.9628C44.6091 16.4499 45.0369 17.909 45.8689 19.052H45.6971C44.8347 19.051 43.9831 19.2713 43.2045 19.6966V11.4312C43.2045 8.39944 42.1541 5.49187 40.2843 3.34811C38.4145 1.20435 35.8785 0 33.2343 0C30.59 0 28.054 1.20435 26.1842 3.34811C24.3144 5.49187 23.264 8.39944 23.264 11.4312V38.1039H21.6023C21.1616 38.1039 20.7389 38.3046 20.4273 38.6619C20.1156 39.0192 19.9406 39.5038 19.9406 40.0091V48.3867L11.0174 57.1559H0V60.9663H11.632C12.0286 60.9662 12.4122 60.8035 12.7133 60.5076L22.3446 51.0426C23.3348 50.0701 24.5955 49.5354 25.8992 49.5351C26.0354 49.5351 26.1684 49.5814 26.2816 49.6681C26.3947 49.7548 26.4829 49.878 26.535 50.0222C26.5871 50.1664 26.6007 50.3251 26.5741 50.4781C26.5475 50.6312 26.482 50.7717 26.3857 50.8821L20.4272 57.7138C20.1948 57.9803 20.0365 58.3198 19.9724 58.6894C19.9083 59.0589 19.9412 59.442 20.067 59.7902C20.1928 60.1383 20.4058 60.4359 20.679 60.6452C20.9523 60.8545 21.2736 60.9663 21.6023 60.9663H39.0502C39.2706 60.9663 39.4819 61.0666 39.6378 61.2453C39.7936 61.4239 39.8811 61.6662 39.8811 61.9189C39.8811 62.1715 39.7936 62.4138 39.6378 62.5924C39.4819 62.7711 39.2706 62.8715 39.0502 62.8715H26.5874C26.1467 62.8715 25.724 63.0722 25.4124 63.4295C25.1008 63.7868 24.9257 64.2714 24.9257 64.7767C24.9257 65.2819 25.1008 65.7665 25.4124 66.1238C25.724 66.4811 26.1467 66.6818 26.5874 66.6818H44.0354C44.2557 66.6818 44.4671 66.7822 44.6229 66.9609C44.7787 67.1395 44.8662 67.3818 44.8662 67.6344C44.8662 67.8871 44.7787 68.1294 44.6229 68.308C44.4671 68.4867 44.2557 68.587 44.0354 68.587H26.5874C26.1467 68.587 25.724 68.7878 25.4124 69.1451C25.1008 69.5024 24.9257 69.9869 24.9257 70.4922C24.9257 70.9975 25.1008 71.4821 25.4124 71.8394C25.724 72.1967 26.1467 72.3974 26.5874 72.3974H40.712C40.9323 72.3974 41.1436 72.4978 41.2995 72.6764C41.4553 72.8551 41.5428 73.0974 41.5428 73.35C41.5428 73.6027 41.4553 73.845 41.2995 74.0236C41.1436 74.2023 40.9323 74.3026 40.712 74.3026H26.5874C26.1467 74.3026 25.724 74.5034 25.4124 74.8606C25.1008 75.2179 24.9257 75.7025 24.9257 76.2078C24.9257 76.7131 25.1008 77.1977 25.4124 77.555C25.724 77.9123 26.1467 78.113 26.5874 78.113H34.7921C34.8176 78.1145 34.8418 78.1266 34.86 78.1472C34.8782 78.1678 34.8891 78.1954 34.8906 78.2246C34.8922 78.2539 34.8843 78.2828 34.8685 78.3058C34.8526 78.3288 34.83 78.3442 34.8048 78.3493L23.394 79.9846L12.089 76.2812C11.9404 76.2325 11.7865 76.2078 11.632 76.2078H0V80.0182H11.3993L19.9406 82.8162V100.975H19.9445C19.9429 101.226 19.9847 101.474 20.0674 101.706C20.1501 101.937 20.2721 102.148 20.4263 102.325C20.5805 102.502 20.7638 102.643 20.9657 102.738C21.1676 102.833 21.3839 102.882 21.6023 102.881H43.5369C43.2572 103.729 43.1524 104.641 43.2308 105.544C43.3092 106.447 43.5686 107.317 43.9888 108.086C44.4089 108.854 44.9784 109.502 45.6528 109.977C46.3272 110.451 47.0882 110.741 47.8764 110.823L76.7693 113.835C77.8207 113.945 78.8737 114 79.9284 114C82.0219 114 84.1112 113.784 86.171 113.355L100 110.472L99.4055 106.723L85.5765 109.604ZM39.8811 30.4831C39.8816 29.978 40.0568 29.4938 40.3684 29.1366C40.6799 28.7794 41.1023 28.5785 41.5428 28.5779H44.8662C46.6285 28.5802 48.318 29.3838 49.5641 30.8125C50.8102 32.2412 51.5111 34.1783 51.5131 36.1987C51.5126 36.7038 51.3374 37.1881 51.0258 37.5453C50.7143 37.9024 50.2919 38.1033 49.8514 38.1039H46.528C44.7657 38.1016 43.0762 37.298 41.8301 35.8693C40.584 34.4406 39.8831 32.5036 39.8811 30.4831ZM45.6971 22.8623H49.8514C50.18 22.8624 50.5013 22.7506 50.7746 22.5413C51.0479 22.3319 51.2609 22.0344 51.3867 21.6862C51.5124 21.3381 51.5453 20.955 51.4812 20.5854C51.4171 20.2159 51.2588 19.8764 51.0264 19.6099L48.5338 16.7521C48.3608 16.5538 48.2236 16.3183 48.1299 16.0591C48.0363 15.7999 47.9881 15.5221 47.9881 15.2416C47.9881 14.961 48.0363 14.6832 48.1299 14.424C48.2236 14.1649 48.3608 13.9294 48.5338 13.731C48.7069 13.5326 48.9123 13.3753 49.1383 13.2679C49.3644 13.1605 49.6067 13.1053 49.8514 13.1053C50.0961 13.1053 50.3384 13.1605 50.5644 13.2679C50.7905 13.3753 50.9959 13.5326 51.1689 13.731L53.6615 16.5888C53.8939 16.8552 54.19 17.0367 54.5123 17.1102C54.8347 17.1837 55.1688 17.146 55.4724 17.0018C55.7761 16.8576 56.0356 16.6134 56.2182 16.3001C56.4008 15.9868 56.4982 15.6184 56.4982 15.2416V11.4312C56.4982 10.4206 56.8484 9.45141 57.4716 8.73682C58.0949 8.02223 58.9402 7.62078 59.8217 7.62078C60.7031 7.62078 61.5484 8.02223 62.1717 8.73682C62.7949 9.45141 63.1451 10.4206 63.1451 11.4312V15.2416C63.1451 15.6184 63.2425 15.9868 63.4251 16.3001C63.6077 16.6134 63.8672 16.8576 64.1709 17.0018C64.4745 17.146 64.8086 17.1837 65.131 17.1102C65.4533 17.0367 65.7494 16.8552 65.9818 16.5888L68.4744 13.731C68.6474 13.5326 68.8528 13.3753 69.0789 13.2679C69.305 13.1605 69.5472 13.1053 69.7919 13.1053C70.0366 13.1053 70.2789 13.1605 70.505 13.2679C70.731 13.3753 70.9364 13.5326 71.1095 13.731C71.2825 13.9294 71.4197 14.1649 71.5134 14.424C71.607 14.6832 71.6552 14.961 71.6552 15.2416C71.6552 15.5221 71.607 15.7999 71.5134 16.0591C71.4197 16.3183 71.2825 16.5538 71.1095 16.7521L68.6169 19.6099C68.3845 19.8764 68.2262 20.2159 68.1621 20.5854C68.098 20.955 68.1309 21.3381 68.2567 21.6862C68.3824 22.0344 68.5954 22.3319 68.8687 22.5413C69.142 22.7506 69.4633 22.8624 69.7919 22.8623H73.9462C74.6073 22.8623 75.2413 23.1634 75.7087 23.6994C76.1762 24.2353 76.4388 24.9622 76.4388 25.7201C76.4388 26.4781 76.1762 27.205 75.7087 27.7409C75.2413 28.2768 74.6073 28.5779 73.9462 28.5779H69.7919C69.3512 28.5779 68.9286 28.7787 68.6169 29.136C68.3053 29.4932 68.1302 29.9778 68.1302 30.4831V31.4979C66.1913 29.5013 63.6464 28.4569 61.0428 28.5892C58.4392 28.7214 55.9849 30.0198 54.2076 32.2052C53.4955 30.023 52.2197 28.1418 50.5506 26.8128C48.8814 25.4839 46.8984 24.7703 44.8662 24.7675H43.3499C43.5218 24.2111 43.8397 23.7292 44.26 23.3881C44.6802 23.047 45.1822 22.8634 45.6971 22.8623V22.8623ZM67.9198 38.1039H55.0469C55.4149 36.4674 56.2469 35.0175 57.412 33.9824C58.5771 32.9472 60.0093 32.3854 61.4834 32.3854C62.9574 32.3854 64.3896 32.9472 65.5547 33.9824C66.7199 35.0175 67.5519 36.4674 67.9198 38.1039ZM26.5874 11.4312C26.5874 9.41002 27.2877 7.47164 28.5342 6.04247C29.7807 4.61329 31.4714 3.81039 33.2343 3.81039C34.9971 3.81039 36.6878 4.61329 37.9343 6.04247C39.1808 7.47164 39.8811 9.41002 39.8811 11.4312V25.0952C38.9099 25.4903 38.0692 26.2203 37.4742 27.1849C36.8791 28.1496 36.559 29.3016 36.5577 30.4831C36.5559 33.297 37.4632 36.0118 39.1045 38.1039H26.5874V11.4312ZM29.9108 41.9143H33.2343V57.1559H29.9108V41.9143ZM25.8992 45.7247C25.0053 45.7251 24.1166 45.8821 23.264 46.19V41.9143H26.5874V45.7973C26.3603 45.7505 26.13 45.7262 25.8992 45.7247V45.7247ZM26.5874 56.0399V57.1559H25.6138L26.5874 56.0399ZM29.9108 82.8908L33.2343 82.4145V96.3755L29.9108 92.5651V82.8908ZM23.47 83.8138L26.5874 83.3671V92.5654L23.264 96.3757V83.8286C23.3329 83.8286 23.4017 83.8236 23.47 83.8138V83.8138ZM25.6138 99.0702L28.2491 96.0488L30.8844 99.0702H25.6138ZM36.5577 81.5938C37.0637 81.2448 37.4825 80.7519 37.7736 80.1629C38.0647 79.5739 38.2183 78.9086 38.2194 78.2316C38.2194 78.1918 38.2194 78.1523 38.2177 78.1125H40.712C41.3335 78.1122 41.947 77.952 42.5074 77.6438C43.0678 77.3356 43.5608 76.8873 43.9501 76.3317C44.3393 75.7762 44.615 75.1277 44.7567 74.4338C44.8984 73.74 44.9027 73.0186 44.769 72.3227C45.7908 72.1126 46.707 71.4715 47.3372 70.5256C47.9673 69.5798 48.2657 68.3977 48.1737 67.2122C48.0817 66.0267 47.6059 64.9236 46.8399 64.1202C46.074 63.3168 45.0735 62.8713 44.0354 62.8715H43.1214C43.2441 62.1794 43.2311 61.4648 43.0834 60.7792C42.9357 60.0937 42.657 59.4543 42.2674 58.9073C41.8778 58.3604 41.3871 57.9195 40.8307 57.6166C40.2743 57.3137 39.6662 57.1563 39.0502 57.1559H36.5577V41.9143H71.4536V81.9294C70.1147 81.9908 68.8483 82.6434 67.9192 83.7505C66.9901 84.8577 66.4703 86.3338 66.4685 87.8702V88.197C66.4709 89.4835 66.8351 90.7348 67.5071 91.7652L71.3116 97.5784C71.4038 97.7199 71.4539 97.8918 71.4543 98.0685V98.113C71.4545 98.3663 71.3671 98.6094 71.2112 98.7888C71.0553 98.9683 70.8437 99.0695 70.6228 99.0702H36.5577V81.5938Z" fill="black"/>
</svg>
