<?xml version="1.0" standalone="no"?>
<!DOCTYPE svg PUBLIC "-//W3C//DTD SVG 20010904//EN"
 "http://www.w3.org/TR/2001/REC-SVG-20010904/DTD/svg10.dtd">
<svg version="1.0" xmlns="http://www.w3.org/2000/svg"
 width="16" height="16" viewBox="0 0 728.000000 1280.000000"
 preserveAspectRatio="xMidYMid meet">
<metadata>
Created by potrace 1.15, written by Peter Selinger 2001-2017
</metadata>
<g transform="translate(0.000000,1280.000000) scale(0.100000,-0.100000)"
fill="#000000" stroke="none">
<path d="M2690 12794 c-1290 -21 -2279 -77 -2458 -138 -22 -8 -42 -23 -50 -39
-73 -149 -122 -1197 -164 -3492 -16 -893 -16 -4570 0 -5460 36 -1971 77 -3007
134 -3372 8 -54 8 -76 -1 -86 -70 -85 529 -142 1949 -189 507 -16 2556 -16
3055 0 1178 39 1809 87 1925 147 24 12 28 23 43 122 62 396 101 1347 139 3388
16 880 16 4592 0 5470 -37 2011 -79 3046 -137 3377 -7 43 -11 86 -8 97 4 15
-4 22 -44 34 -169 55 -740 95 -1803 127 -324 10 -2204 20 -2580 14z m-2346
-229 c282 -45 946 -82 1911 -106 543 -13 2246 -13 2800 1 1023 24 1735 66
1974 116 30 6 33 5 28 -12 -105 -343 -183 -4064 -157 -7462 21 -2776 78 -4532
157 -4851 5 -21 3 -23 -13 -17 -135 55 -960 110 -2044 137 -587 15 -2155 15
-2740 0 -953 -24 -1676 -67 -1950 -115 -41 -8 -77 -12 -78 -11 -2 2 1 34 7 72
135 874 193 6716 101 10163 -31 1154 -70 1859 -116 2084 -5 25 -4 28 11 22 10
-3 59 -13 109 -21z"/>
<path d="M3195 11823 c-1027 -11 -1933 -70 -2103 -138 -30 -12 -41 -23 -45
-43 -3 -15 -14 -70 -26 -122 -44 -205 -83 -731 -101 -1380 -33 -1175 33 -2543
133 -2782 13 -31 22 -38 69 -51 293 -82 1207 -130 2478 -130 1168 0 2035 40
2395 110 127 24 151 37 180 96 53 110 93 467 127 1137 16 326 16 1654 0 1980
-29 564 -57 868 -98 1045 -31 130 -43 141 -194 168 -409 74 -1658 123 -2815
110z m2895 -227 c0 -3 -7 -38 -15 -78 -66 -311 -105 -1054 -105 -2008 0 -1020
42 -1775 115 -2055 9 -32 14 -59 13 -61 -2 -1 -27 4 -57 12 -159 41 -614 77
-1321 106 -398 16 -1831 16 -2230 0 -724 -29 -1185 -67 -1332 -108 -15 -4 -15
0 -3 53 92 398 138 1859 95 2978 -21 528 -49 859 -96 1119 l-7 39 34 -6 c646
-112 2537 -151 3944 -82 442 22 793 54 915 84 44 11 50 12 50 7z"/>
<path d="M5961 6924 c-216 -58 -361 -246 -361 -469 0 -371 379 -598 715 -428
27 14 77 53 111 87 165 166 188 414 57 614 -109 165 -329 248 -522 196z"/>
<path d="M2940 5514 c-757 -15 -1489 -62 -1725 -110 -140 -28 -161 -48 -189
-182 -72 -330 -110 -1031 -110 -2012 0 -1057 45 -1813 125 -2082 17 -60 24
-70 57 -86 124 -63 553 -106 1412 -144 368 -16 1778 -16 2155 0 847 37 1291
83 1414 147 37 18 57 63 81 177 70 330 110 1063 111 1988 0 1069 -54 1859
-144 2115 -12 35 -20 42 -63 56 -147 50 -589 90 -1314 119 -252 10 -1511 20
-1810 14z m-1735 -234 c113 -26 471 -60 840 -80 841 -45 2257 -45 3100 0 387
21 833 65 867 86 11 7 11 6 -12 -104 -122 -607 -147 -2610 -44 -3617 17 -169
48 -368 63 -408 12 -31 7 -33 -49 -17 -153 42 -695 86 -1365 112 -408 15
-1647 15 -2045 0 -674 -27 -1131 -63 -1343 -108 -38 -8 -70 -14 -71 -14 -2 0
5 39 15 88 34 161 66 542 91 1072 15 328 15 1488 0 1825 -27 597 -62 969 -107
1148 -8 31 -3 32 60 17z"/>
</g>
</svg>
